<svg xmlns="http://www.w3.org/2000/svg" viewBox="0 0 1600 900" role="img" aria-label="Mobile shop background">
  <defs>
    <linearGradient id="bg" x1="0" x2="1" y1="0" y2="1">
      <stop offset="0%" stop-color="#0a0f1f"/>
      <stop offset="60%" stop-color="#0f172a"/>
      <stop offset="100%" stop-color="#111827"/>
    </linearGradient>
    <linearGradient id="neon" x1="0" x2="1" y1="0" y2="0">
      <stop offset="0%" stop-color="#22d3ee" stop-opacity="0.6"/>
      <stop offset="50%" stop-color="#818cf8" stop-opacity="0.6"/>
      <stop offset="100%" stop-color="#f97316" stop-opacity="0.55"/>
    </linearGradient>
    <radialGradient id="pulse" cx="50%" cy="50%" r="70%">
      <stop offset="0%" stop-color="#60a5fa" stop-opacity="0.25"/>
      <stop offset="100%" stop-color="#0f172a" stop-opacity="0"/>
    </radialGradient>
  </defs>
  <rect width="1600" height="900" fill="url(#bg)"/>
  <rect width="1600" height="900" fill="url(#pulse)"/>

  <g opacity="0.2" stroke="#1f2937" stroke-width="1">
    <path d="M0 100 H1600"/>
    <path d="M0 200 H1600"/>
    <path d="M0 300 H1600"/>
    <path d="M0 400 H1600"/>
    <path d="M0 500 H1600"/>
    <path d="M0 600 H1600"/>
    <path d="M0 700 H1600"/>
    <path d="M0 800 H1600"/>
    <path d="M100 0 V900"/>
    <path d="M300 0 V900"/>
    <path d="M500 0 V900"/>
    <path d="M700 0 V900"/>
    <path d="M900 0 V900"/>
    <path d="M1100 0 V900"/>
    <path d="M1300 0 V900"/>
    <path d="M1500 0 V900"/>
  </g>

  <path d="M-120 120 C 200 -10, 520 70, 820 140 C 1120 210, 1320 80, 1720 120" fill="none" stroke="url(#neon)" stroke-width="110" opacity="0.35"/>
  <path d="M-140 740 C 200 640, 520 770, 820 730 C 1120 690, 1320 820, 1720 740" fill="none" stroke="url(#neon)" stroke-width="130" opacity="0.35"/>

  <g opacity="0.4" fill="none" stroke="#cbd5f5" stroke-width="3">
    <rect x="180" y="190" width="140" height="240" rx="18"/>
    <rect x="205" y="215" width="90" height="170" rx="10"/>
    <circle cx="250" cy="405" r="6" fill="#e2e8f0"/>

    <rect x="420" y="140" width="120" height="220" rx="18"/>
    <rect x="442" y="165" width="76" height="150" rx="10"/>
    <circle cx="480" cy="330" r="6" fill="#e2e8f0"/>

    <rect x="650" y="210" width="150" height="260" rx="20"/>
    <rect x="675" y="238" width="100" height="190" rx="10"/>
    <circle cx="725" cy="455" r="7" fill="#e2e8f0"/>

    <rect x="980" y="160" width="130" height="230" rx="18"/>
    <rect x="1003" y="185" width="84" height="160" rx="10"/>
    <circle cx="1045" cy="355" r="6" fill="#e2e8f0"/>

    <rect x="1210" y="230" width="150" height="260" rx="20"/>
    <rect x="1235" y="258" width="100" height="190" rx="10"/>
    <circle cx="1285" cy="475" r="7" fill="#e2e8f0"/>
  </g>

  <g opacity="0.2" fill="none" stroke="#93c5fd" stroke-width="2">
    <rect x="320" y="520" width="140" height="240" rx="18"/>
    <rect x="345" y="545" width="90" height="170" rx="10"/>
    <circle cx="390" cy="735" r="6" fill="#cbd5f5"/>

    <rect x="720" y="520" width="150" height="260" rx="20"/>
    <rect x="745" y="548" width="100" height="190" rx="10"/>
    <circle cx="795" cy="765" r="7" fill="#cbd5f5"/>

    <rect x="1060" y="520" width="140" height="240" rx="18"/>
    <rect x="1085" y="545" width="90" height="170" rx="10"/>
    <circle cx="1130" cy="735" r="6" fill="#cbd5f5"/>
  </g>

  <g opacity="0.35" stroke="url(#neon)" stroke-width="2" fill="none">
    <path d="M150 470 H420"/>
    <path d="M420 470 V610"/>
    <path d="M420 610 H620"/>
    <path d="M620 610 V500"/>
    <path d="M620 500 H860"/>
    <circle cx="150" cy="470" r="6" fill="#22d3ee"/>
    <circle cx="620" cy="610" r="6" fill="#818cf8"/>
    <circle cx="860" cy="500" r="6" fill="#f97316"/>
  </g>
</svg>
